<?xml version="1.0" standalone="no"?>
<!DOCTYPE svg PUBLIC "-//W3C//DTD SVG 20010904//EN"
 "http://www.w3.org/TR/2001/REC-SVG-20010904/DTD/svg10.dtd">
<svg version="1.0"
    xmlns="http://www.w3.org/2000/svg" width="225.000000pt" height="225.000000pt" viewBox="0 0 225.000000 225.000000" preserveAspectRatio="xMidYMid meet">
    <metadata>
Created by potrace 1.14, written by Peter Selinger 2001-2017
    </metadata>
    <g transform="translate(0.000000,225.000000) scale(0.100000,-0.100000)" fill="#000000" stroke="none">
        <path d="M1038 1844 c-2 -2 -17 -5 -33 -8 -17 -3 -45 -10 -62 -15 -18 -5 -33
-7 -33 -4 0 3 -6 0 -13 -6 -8 -6 -17 -8 -20 -4 -4 3 -7 1 -7 -5 0 -7 -6 -12
-13 -12 -20 0 -118 -51 -139 -72 -10 -10 -21 -18 -25 -18 -5 0 -35 -26 -69
-58 -98 -94 -161 -198 -198 -326 -15 -50 -19 -56 -40 -52 -41 7 -50 -8 -22
-39 14 -15 26 -31 26 -35 0 -3 8 -15 18 -26 9 -10 27 -34 38 -52 l20 -32 34
47 c19 27 40 54 47 61 7 7 13 17 13 21 0 4 9 17 20 29 12 12 17 22 13 23 -44
4 -54 6 -59 12 -3 3 2 27 12 54 11 26 18 51 16 56 -1 4 2 7 8 7 5 0 10 5 10
11 0 19 77 124 123 166 66 61 206 145 219 132 2 -1 13 3 25 9 40 22 171 31
279 19 49 -5 157 -37 165 -50 3 -5 10 -9 15 -9 20 1 105 -60 153 -108 45 -45
111 -131 111 -143 0 -2 14 -35 31 -73 l31 -68 15 29 c9 17 17 32 19 34 1 2 18
-11 36 -27 18 -17 34 -30 35 -28 7 7 -36 118 -72 185 -52 98 -175 224 -268
276 -67 37 -179 79 -241 91 -34 7 -213 13 -218 8z"/>
        <path d="M1117 1427 c-17 -5 -28 -18 -32 -38 -4 -16 -12 -29 -18 -30 -7 -1
-91 -2 -187 -3 -96 -1 -180 -5 -186 -9 -8 -5 -12 -75 -13 -230 l-1 -223 33 -2
c17 -2 82 -4 142 -5 61 -1 116 -6 123 -10 7 -5 18 -4 25 1 7 6 112 10 271 10
178 0 261 3 265 11 4 6 7 36 6 66 -2 54 -1 55 26 55 34 0 35 6 33 110 -2 104
-1 98 -16 97 -44 -1 -46 2 -44 63 1 33 -1 61 -4 61 -3 1 -75 2 -160 4 -147 1
-155 2 -152 21 2 10 8 24 14 31 7 9 3 14 -14 17 -50 11 -86 12 -111 3z"/>
        <path d="M1763 1117 c-11 -12 -36 -45 -56 -74 -19 -29 -38 -49 -42 -45 -5 4
-5 2 -1 -5 3 -6 2 -14 -4 -18 -19 -12 0 -23 30 -19 18 3 30 1 30 -6 0 -20 -62
-160 -70 -160 -5 0 -11 -8 -14 -17 -6 -20 -96 -115 -142 -151 -47 -38 -169
-92 -235 -106 -60 -12 -196 -13 -254 -2 -70 14 -191 67 -238 105 -82 65 -187
189 -187 220 0 6 -4 11 -10 11 -5 0 -9 3 -8 8 1 4 -6 31 -16 60 -15 43 -20 51
-32 41 -8 -6 -12 -15 -9 -19 3 -4 -2 -13 -10 -20 -12 -10 -20 -6 -44 21 -17
18 -33 31 -35 28 -7 -6 36 -127 66 -186 29 -58 96 -150 132 -180 14 -13 26
-27 26 -33 0 -5 5 -10 11 -10 6 0 28 -13 48 -28 50 -40 198 -110 246 -118 11
-1 43 -7 70 -13 70 -14 218 -7 295 13 161 42 312 146 407 280 12 17 26 36 30
41 20 25 62 114 74 155 17 60 24 68 60 66 18 -1 28 2 26 9 -4 8 -111 162 -121
172 -2 2 -12 -7 -23 -20z"/>
        <path d="M957 859 c-4 -16 -3 -18 9 -8 7 6 11 15 8 20 -8 13 -11 11 -17 -12z"/>
    </g>
</svg>
