<svg xmlns="http://www.w3.org/2000/svg" viewBox="0 0 24 24" className="w-6 h-6 fill-current text-white hover:text-gray-400">
    <path d="M12 0C5.373 0 0 5.373 0 12c0 5.303 3.438 9.8 8.205 11.387.6.113.82-.26.82-.577 0-.285-.01-1.04-.016-2.04-3.338.725-4.042-1.612-4.042-1.612-.546-1.387-1.333-1.756-1.333-1.756-1.09-.745.083-.73.083-.73 1.205.085 1.84 1.237 1.84 1.237 1.07 1.835 2.805 1.305 3.492.998.108-.775.418-1.305.76-1.605-2.665-.305-5.467-1.335-5.467-5.933 0-1.31.467-2.38 1.235-3.22-.124-.303-.535-1.525.117-3.177 0 0 1.008-.323 3.3 1.23a11.497 11.497 0 0 1 3-.404c1.02.005 2.042.137 3 .404 2.29-1.553 3.297-1.23 3.297-1.23.65 1.652.243 2.874.12 3.177.77.84 1.235 1.91 1.235 3.22 0 4.61-2.805 5.624-5.475 5.92.43.37.81 1.1.81 2.22 0 1.605-.014 2.898-.014 3.293 0 .32.215.694.825.576C20.565 21.798 24 17.302 24 12c0-6.627-5.373-12-12-12z"/>
</svg>