<svg xmlns="http://www.w3.org/2000/svg" viewBox="0 0 24 24" className="w-6 h-6 fill-current text-white hover:text-gray-400">
    <path d="M19.5 3H4.5C3.673 3 3 3.673 3 4.5v15c0 .827.673 1.5 1.5 1.5h15c.827 0 1.5-.673 1.5-1.5v-15c0-.827-.673-1.5-1.5-1.5zM8.797 19.051H5.79V9h3.007v10.051zM7.293 7.797c-.964 0-1.74-.778-1.74-1.74 0-.961.776-1.738 1.74-1.738s1.739.777 1.739 1.738c0 .962-.776 1.74-1.739 1.74zM19.05 19.051h-3.006v-5.217c0-1.244-.026-2.843-1.732-2.843-1.733 0-2 1.355-2 2.753v5.307h-3.007V9h2.887v1.378h.041c.403-.76 1.387-1.562 2.856-1.562 3.05 0 3.613 2.007 3.613 4.617v5.618h-.002z"/>
</svg>